<svg width="20" height="20" viewBox="0 0 20 20" fill="none" xmlns="http://www.w3.org/2000/svg">
<g id="vuesax/bold/star">
<g id="star">
<path id="Vector" d="M11.4421 2.92507L12.9087 5.85841C13.1087 6.26674 13.6421 6.65841 14.0921 6.73341L16.7504 7.17507C18.4504 7.45841 18.8504 8.69174 17.6254 9.90841L15.5587 11.9751C15.2087 12.3251 15.0171 13.0001 15.1254 13.4834L15.7171 16.0417C16.1837 18.0667 15.1087 18.8501 13.3171 17.7917L10.8254 16.3167C10.3754 16.0501 9.63375 16.0501 9.17541 16.3167L6.68375 17.7917C4.90041 18.8501 3.81708 18.0584 4.28375 16.0417L4.87541 13.4834C4.98375 13.0001 4.79208 12.3251 4.44208 11.9751L2.37541 9.90841C1.15875 8.69174 1.55041 7.45841 3.25041 7.17507L5.90875 6.73341C6.35041 6.65841 6.88375 6.26674 7.08375 5.85841L8.55041 2.92507C9.35041 1.33341 10.6504 1.33341 11.4421 2.92507Z" fill="#FFA439"/>
</g>
</g>
</svg>
