<svg width="15" height="15" viewBox="0 0 15 15" fill="none" xmlns="http://www.w3.org/2000/svg">
<g id="vuesax/bold/star">
<g id="star">
<path id="Vector" d="M8.58107 2.1939L9.68107 4.3939C9.83107 4.70015 10.2311 4.9939 10.5686 5.05015L12.5623 5.3814C13.8373 5.5939 14.1373 6.5189 13.2186 7.4314L11.6686 8.9814C11.4061 9.2439 11.2623 9.75015 11.3436 10.1126L11.7873 12.0314C12.1373 13.5501 11.3311 14.1376 9.98732 13.3439L8.11857 12.2376C7.78107 12.0376 7.22482 12.0376 6.88107 12.2376L5.01232 13.3439C3.67482 14.1376 2.86232 13.5439 3.21232 12.0314L3.65607 10.1126C3.73732 9.75015 3.59357 9.2439 3.33107 8.9814L1.78107 7.4314C0.868571 6.5189 1.16232 5.5939 2.43732 5.3814L4.43107 5.05015C4.76232 4.9939 5.16232 4.70015 5.31232 4.3939L6.41232 2.1939C7.01232 1.00015 7.98732 1.00015 8.58107 2.1939Z" fill="#FFA439"/>
</g>
</g>
</svg>
